<svg id="visual" viewBox="0 0 900 600" width="900" height="600" xmlns="http://www.w3.org/2000/svg" xmlns:xlink="http://www.w3.org/1999/xlink" version="1.1"><rect x="0" y="0" width="900" height="600" fill="#0d2430"></rect><path d="M0 487L18.8 487C37.7 487 75.3 487 112.8 487.3C150.3 487.7 187.7 488.3 225.2 481.7C262.7 475 300.3 461 337.8 456.2C375.3 451.3 412.7 455.7 450.2 466.7C487.7 477.7 525.3 495.3 562.8 492.8C600.3 490.3 637.7 467.7 675.2 460.2C712.7 452.7 750.3 460.3 787.8 463.2C825.3 466 862.7 464 881.3 463L900 462L900 601L881.3 601C862.7 601 825.3 601 787.8 601C750.3 601 712.7 601 675.2 601C637.7 601 600.3 601 562.8 601C525.3 601 487.7 601 450.2 601C412.7 601 375.3 601 337.8 601C300.3 601 262.7 601 225.2 601C187.7 601 150.3 601 112.8 601C75.3 601 37.7 601 18.8 601L0 601Z" fill="#0066FF" stroke-linecap="round" stroke-linejoin="miter"></path></svg>